:SAMPLES-PER-SECOND 30
:FULLY-SPECIFIED
:DEGREES
496
root  -8.97558 40.1093 -5.15018 -0.36319 -69.9603 -1.10675
RightUpLeg  -8.45508 -15.6885 -3.75113
RightLeg  18.7246 -8.65602 1.72017
RightFoot  -8.15061 -0.0366719 -0.650004
RightToes  0.00048216 0.542163 -0.142577
Spine  17.7912 2.18976 15.4215
Spine1  3.60732 7.10333 -10.4366
HEad  -5.22837 57.333 -19.265
LeftShoulder1  7.11516 -10.8129 -43.2135
LeftArm  -17.3375 21.5905 -21.5872
LeftForeArm  23.909 -27.6651 -4.6707
LeftHand  -0.25398 0.0180481 5.50724
RightShoulder  5.25442 8.93532 36.2529
RightArm  -7.91316 -22.1745 33.8187
RightForeArm  12.7003 6.97004 6.42856
RightHand  -0.611307 -1.03634 -16.1476
LeftUpLeg  -14.5064 3.39565 6.21365
LeftLeg  41.1003 4.67901 4.7285
LeftFoot  -3.92984 0.222959 -3.07269
LeftToes  1.06248e-005 4.65856e-005 -8.18499e-006
497
root  -7.93355 40.0035 -4.74025 1.42026 -71.4666 -2.71179
RightUpLeg  -10.9788 -16.6967 -3.26927
RightLeg  19.3336 -6.00495 1.37064
RightFoot  -6.32248 -0.0162482 -0.612327
RightToes  0.00048216 0.542163 -0.142577
Spine  17.4538 1.74657 15.1381
Spine1  3.64141 6.47571 -9.66571
HEad  -6.54661 52.1182 -19.0035
LeftShoulder1  6.92208 -10.5063 -42.9427
LeftArm  -19.3167 22.834 -22.3722
LeftForeArm  23.5115 -28.9936 -4.99381
LeftHand  -0.25398 0.0180481 5.50724
RightShoulder  5.06731 8.65133 35.7135
RightArm  -7.06808 -25.6734 33.9358
RightForeArm  12.6431 8.35003 6.70228
RightHand  -0.5689 -1.14463 -15.3849
LeftUpLeg  -10.0168 2.32417 7.8877
LeftLeg  40.8417 4.04257 4.11544
LeftFoot  -4.55999 0.193132 -2.78376
LeftToes  1.06248e-005 4.65856e-005 -8.18499e-006
498
root  -6.90628 39.8957 -4.30759 3.61533 -73.1741 -4.44962
RightUpLeg  -13.4899 -16.6069 -2.76812
RightLeg  19.2232 -4.33582 1.11579
RightFoot  -4.31793 -0.00891134 -0.33417
RightToes  0.00048216 0.542163 -0.142577
Spine  16.9596 1.24371 14.2756
Spine1  3.28363 5.57686 -8.92518
HEad  -6.99286 45.3269 -17.2738
LeftShoulder1  6.7183 -10.2479 -42.4285
LeftArm  -20.4383 24.6939 -23.3159
LeftForeArm  23.3974 -30.4679 -5.34396
LeftHand  -0.25398 0.0180481 5.50724
RightShoulder  4.85306 8.31693 35.0921
RightArm  -6.31667 -28.3433 34.1224
RightForeArm  10.8036 9.95034 6.86657
RightHand  -0.510436 -1.31043 -14.3412
LeftUpLeg  -4.84213 2.32566 9.01998
LeftLeg  37.4267 2.0518 2.07854
LeftFoot  -5.96903 0.310879 -6.06699
LeftToes  1.06248e-005 4.65856e-005 -8.18499e-006
499
root  -5.87869 39.8175 -3.84885 5.90948 -74.9367 -6.20747
RightUpLeg  -15.5154 -15.9183 -2.5786
RightLeg  18.056 -3.40493 1.16614
RightFoot  -1.93059 -0.0169795 0.0518273
RightToes  0.00048216 0.542163 -0.142577
Spine  16.7197 0.740619 13.0237
Spine1  2.4928 4.56582 -8.29592
HEad  -7.17776 37.338 -14.7421
LeftShoulder1  6.52625 -9.99904 -41.9426
LeftArm  -20.7331 26.2704 -24.3507
LeftForeArm  24.0747 -31.5188 -5.55728
LeftHand  -0.25398 0.0180481 5.50724
RightShoulder  4.64411 7.96434 34.5412
RightArm  -5.5126 -30.3854 34.3137
RightForeArm  7.42296 11.7396 6.86437
RightHand  -0.497511 -1.39333 -14.2477
LeftUpLeg  0.750294 2.69129 9.33636
LeftLeg  30.5882 -0.432296 0.0760006
LeftFoot  -9.22632 0.249634 -10.749
LeftToes  1.06248e-005 4.65856e-005 -8.18499e-006
500
root  -4.82524 39.7702 -3.37085 7.90186 -76.8008 -7.80693
RightUpLeg  -16.8817 -15.1666 -2.76738
RightLeg  15.9518 -2.43943 1.5407
RightFoot  0.954502 -0.0694214 0.691074
RightToes  0.00048216 0.542163 -0.142577
Spine  16.9733 0.413402 11.355
Spine1  1.67411 3.66314 -7.55964
HEad  -7.89659 28.3347 -11.852
LeftShoulder1  6.41016 -9.80114 -41.7976
LeftArm  -20.4779 26.719 -25.3905
LeftForeArm  25.3976 -31.6714 -5.51991
LeftHand  -0.25398 0.0180481 5.50724
RightShoulder  4.52703 7.74521 34.2925
RightArm  -4.52519 -31.6062 34.2778
RightForeArm  3.1834 13.4968 6.76981
RightHand  -0.635593 -0.670324 -15.5074
LeftUpLeg  5.65292 3.90738 8.6811
LeftLeg  22.0571 -2.07484 -0.587337
LeftFoot  -13.5756 -0.136292 -11.9063
LeftToes  1.06248e-005 4.65856e-005 -8.18499e-006
501
root  -3.72262 39.7479 -2.91378 8.88728 -78.5511 -8.4095
RightUpLeg  -17.7346 -14.0048 -3.58009
RightLeg  13.033 -1.98924 2.147
RightFoot  3.66215 -0.278893 2.29089
RightToes  0.00048216 0.542163 -0.142577
Spine  17.4538 0.313915 8.80232
Spine1  1.18396 2.78563 -6.13755
HEad  -9.50654 19.2425 -8.63353
LeftShoulder1  6.35689 -9.67106 -41.8624
LeftArm  -19.8871 25.9539 -26.3729
LeftForeArm  26.8514 -30.9031 -5.25462
LeftHand  -0.25398 0.0180481 5.50724
RightShoulder  4.5638 7.76206 34.5536
RightArm  -4.41353 -31.4725 34.0204
RightForeArm  1.16072 14.3861 6.5965
RightHand  -0.942496 1.01539 -17.1467
LeftUpLeg  8.3104 6.24232 7.42238
LeftLeg  14.971 -2.10781 -0.541544
LeftFoot  -16.7845 -0.305703 -8.5353
LeftToes  1.06248e-005 4.65856e-005 -8.18499e-006
502
root  -2.59481 39.7476 -2.5184 8.09923 -79.7109 -6.95735
RightUpLeg  -18.3399 -12.3661 -5.17879
RightLeg  9.54291 -3.19884 2.89639
RightFoot  4.89325 -0.670067 4.95528
RightToes  0.00048216 0.542163 -0.142577
Spine  17.7003 0.274203 5.25884
Spine1  0.827014 1.70961 -3.74616
HEad  -11.4321 11.4141 -5.19089
LeftShoulder1  6.28231 -9.5392 -41.7825
LeftArm  -19.0442 24.5718 -27.1111
LeftForeArm  28.3134 -29.5978 -4.86916
LeftHand  -0.25398 0.0180481 5.50724
RightShoulder  4.65253 7.84679 35.0274
RightArm  -6.9418 -30.1576 34.3581
RightForeArm  2.79458 13.9531 6.25148
RightHand  -1.36306 3.1403 -18.6916
LeftUpLeg  8.07449 7.34698 5.875
LeftLeg  11.4478 -0.275451 -1.14165
LeftFoot  -18.0024 -0.163645 -4.59259
LeftToes  1.06248e-005 4.65856e-005 -8.18499e-006
503
root  -1.52646 39.7723 -2.1813 5.81693 -80.3492 -3.8757
RightUpLeg  -18.936 -11.3355 -6.90209
RightLeg  6.76862 -5.23509 3.53874
RightFoot  4.18526 -0.979816 7.39684
RightToes  0.00048216 0.542163 -0.142577
Spine  17.6786 0.179567 1.74444
Spine1  0.226906 0.648732 -1.35799
HEad  -12.5935 5.37643 -2.04572
LeftShoulder1  6.14752 -9.34735 -41.4729
LeftArm  -18.0656 23.1959 -27.2398
LeftForeArm  29.8153 -28.1547 -4.46189
LeftHand  -0.25398 0.0180481 5.50724
RightShoulder  4.61514 7.71674 35.1653
RightArm  -11.8915 -28.7308 36.1217
RightForeArm  4.29175 13.1892 5.61213
RightHand  -1.93989 5.51012 -20.7934
LeftUpLeg  6.14401 7.12506 4.31169
LeftLeg  10.8169 1.35787 -2.0299
LeftFoot  -18.0394 -0.0742905 -3.11324
LeftToes  1.06248e-005 4.65856e-005 -8.18499e-006
504
root  -0.594399 39.874 -1.85331 4.87189 -81.2439 -2.60117
RightUpLeg  -19.4755 -11.9052 -7.35174
RightLeg  6.59445 -5.59514 3.47426
RightFoot  2.79124 -0.999474 8.19115
RightToes  0.00048216 0.542163 -0.142577
Spine  17.6973 0.0746389 0.0635407
Spine1  -0.44407 0.158834 -0.489577
HEad  -12.4676 0.979075 0.154816
LeftShoulder1  5.95901 -9.08544 -41.0003
LeftArm  -17.294 22.1615 -26.6428
LeftForeArm  30.8218 -26.7116 -4.09255
LeftHand  -0.25398 0.0180481 5.50724
RightShoulder  4.43689 7.3593 34.8816
RightArm  -16.834 -27.8294 38.7525
RightForeArm  2.24713 13.2775 4.99337
RightHand  -2.69595 8.0402 -23.412
LeftUpLeg  4.62724 6.87785 3.22037
LeftLeg  10.6618 2.2842 -2.58578
LeftFoot  -17.3752 -0.0465396 -2.85198
LeftToes  1.06248e-005 4.65856e-005 -8.18499e-006
505
root  0.178377 40.05 -1.5111 8.52107 -82.8652 -6.67023
RightUpLeg  -20.0452 -14.1293 -5.77569
RightLeg  10.3218 -2.81727 2.12297
RightFoot  1.75564 -0.858049 7.56814
RightToes  0.00048216 0.542163 -0.142577
Spine  17.6957 0.0528053 0.57779
Spine1  -0.730715 0.340762 -1.18406
HEad  -11.4316 -1.75332 1.06535
LeftShoulder1  5.6892 -8.72654 -40.2268
LeftArm  -17.0344 21.6762 -25.6842
LeftForeArm  30.5829 -25.1069 -3.76035
LeftHand  -0.25398 0.0180481 5.50724
RightShoulder  4.25629 7.02793 34.4582
RightArm  -19.8391 -26.9641 40.4938
RightForeArm  -0.840117 13.8506 4.73403
RightHand  -3.35648 10.0396 -25.3224
LeftUpLeg  4.30786 6.5785 2.77956
LeftLeg  9.97918 4.16255 -2.83413
LeftFoot  -16.2382 0.0110556 -2.00003
LeftToes  1.06248e-005 4.65856e-005 -8.18499e-006
